<svg xmlns="http://www.w3.org/2000/svg" fill="none" viewBox="0 0 100 100">
  <circle cx="50" cy="50" r="47.5" fill="#3E9CDC" stroke="#286690" stroke-width="5"/>
  <path fill="#fff" d="M46 52.4V51c0-.4.3-.7.6-.7h14.2c.3 0 .6.3.6.7v1.3c0 .3-.3.6-.6.6H46.6a.6.6 0 0 1-.6-.6Zm.6 3.2h14.2c.3 0 .6.3.6.6v1.3c0 .4-.3.7-.6.7H46.6a.6.6 0 0 1-.6-.7v-1.3c0-.3.3-.6.6-.6Zm0 5.1h14.2c.3 0 .6.3.6.7v1.3c0 .3-.3.6-.6.6H46.6a.6.6 0 0 1-.6-.6v-1.3c0-.4.3-.7.6-.7Z"/>
  <path fill="#fff" fill-rule="evenodd" d="M38.3 44.3a7.4 7.4 0 1 1 7.2-9.3h12.7c1 0 2.6.6 3.3 1.4l6.3 6.2a6 6 0 0 1 1.3 3.3v23.2c0 1-.8 2-1.9 2h-27c-1 0-2-1-2-2V44.3Zm2.6-.4c2.6-1 4.5-3.4 4.8-6.3h10.6v8.3c0 1.1.8 2 2 2h8.3v20.5H40.9V44Zm18.8-5.7-.8-.5v7.6h7.5l-.4-.8-6.3-6.3Zm-20.4-.3h4v-2h-4v-4h-2v4h-4v2h4v4h2v-4Z" clip-rule="evenodd"/>
</svg>