<svg xmlns="http://www.w3.org/2000/svg" fill="none" viewBox="0 0 100 100">
  <circle cx="50" cy="50" r="47.5" fill="#3E9CDC" stroke="#286690" stroke-width="5"/>
  <path fill="#fff" d="M45.7 54.5v-1.9h2.6v-5.8L47.2 48l-1.6-1.6 3-2.8h2.3v9h2.5v2h-7.7ZM56 49.4c0-3.7-2.2-8.4-6.4-8.4s-6.4 4.7-6.4 8.4c0 3.6 2.2 8.4 6.4 8.4S56 53 56 49.4Zm10.3 5.1a5.2 5.2 0 0 0-5.1 5.2H38c0-2.9-2.3-5.2-5.1-5.2V44.2c2.8 0 5.1-2.3 5.1-5h23.2c0 2.7 2.3 5 5.1 5v10.3Zm2.6-16.7c0-.7-.6-1.3-1.3-1.3h-36c-.7 0-1.3.6-1.3 1.3V61c0 .7.6 1.3 1.3 1.3h36c.7 0 1.3-.6 1.3-1.3V37.8Z"/>
</svg>