<svg xmlns="http://www.w3.org/2000/svg" xmlns:xlink="http://www.w3.org/1999/xlink"><defs>
    <path id="reuse-0" fill="#fff" d="M.5 0h20v20H.5z"/>
  
    <clipPath id="clip0_4_174">
      <use xlink:href="#reuse-0"/>
    </clipPath>
    <clipPath id="clip1_4_174">
      <use xlink:href="#reuse-0"/>
    </clipPath>
  
    <clipPath id="clip0_4_184">
      <path fill="#fff" d="M.5 0h20v20H.5z"/>
    </clipPath>
  </defs><symbol id="ft1" viewBox="0 0 100 100"><g fill="none">
  <circle cx="50" cy="50" r="47.5" fill="#3E9CDC" stroke="#286690" stroke-width="5"/>
  <path fill="#fff" d="M56 48a9 9 0 1 1-18 0 9 9 0 0 1 18 0Zm10.2 16.6c0-.6-.3-1.3-.7-1.8l-7-6.9A14.1 14.1 0 0 0 47 33.8a14.1 14.1 0 1 0 8 25.8l7 6.9c.4.4 1 .7 1.7.7 1.4 0 2.6-1.2 2.6-2.6Z"/>
</g></symbol><symbol id="ft2" viewBox="0 0 100 100"><g fill="none">
  <circle cx="50" cy="50" r="47.5" fill="#3E9CDC" stroke="#286690" stroke-width="5"/>
  <path fill="#fff" d="M59.8 58c0 1.4-1.2 2.5-2.6 2.5a2.6 2.6 0 0 1-2.6-2.5c0-1.4 1.2-2.6 2.6-2.6 1.4 0 2.6 1.2 2.6 2.6ZM44.4 42.5c0 1.4-1.2 2.6-2.6 2.6a2.6 2.6 0 0 1-2.6-2.6c0-1.4 1.2-2.5 2.6-2.5 1.4 0 2.6 1.1 2.6 2.5ZM64.9 58a7.7 7.7 0 1 0-15.4 0 7.7 7.7 0 0 0 15.4 0ZM63 36c0-.7-.6-1.3-1.3-1.3h-3.2c-.4 0-.8.2-1 .5L36.3 63.6c-.2.3-.3.5-.3.8 0 .7.6 1.3 1.3 1.3h3.2c.4 0 .8-.2 1-.5l21.2-28.3c.2-.3.3-.5.3-.8Zm-13.5 6.4a7.7 7.7 0 1 0-15.4 0 7.7 7.7 0 0 0 15.4 0Z"/>
</g></symbol><symbol id="ft3" viewBox="0 0 100 100"><g fill="none">
  <circle cx="50" cy="50" r="47.5" fill="#3E9CDC" stroke="#286690" stroke-width="5"/>
  <path fill="#fff" d="M46 52.4V51c0-.4.3-.7.6-.7h14.2c.3 0 .6.3.6.7v1.3c0 .3-.3.6-.6.6H46.6a.6.6 0 0 1-.6-.6Zm.6 3.2h14.2c.3 0 .6.3.6.6v1.3c0 .4-.3.7-.6.7H46.6a.6.6 0 0 1-.6-.7v-1.3c0-.3.3-.6.6-.6Zm0 5.1h14.2c.3 0 .6.3.6.7v1.3c0 .3-.3.6-.6.6H46.6a.6.6 0 0 1-.6-.6v-1.3c0-.4.3-.7.6-.7Z"/>
  <path fill="#fff" fill-rule="evenodd" d="M38.3 44.3a7.4 7.4 0 1 1 7.2-9.3h12.7c1 0 2.6.6 3.3 1.4l6.3 6.2a6 6 0 0 1 1.3 3.3v23.2c0 1-.8 2-1.9 2h-27c-1 0-2-1-2-2V44.3Zm2.6-.4c2.6-1 4.5-3.4 4.8-6.3h10.6v8.3c0 1.1.8 2 2 2h8.3v20.5H40.9V44Zm18.8-5.7-.8-.5v7.6h7.5l-.4-.8-6.3-6.3Zm-20.4-.3h4v-2h-4v-4h-2v4h-4v2h4v4h2v-4Z" clip-rule="evenodd"/>
</g></symbol><symbol id="ft4" viewBox="0 0 100 100"><g fill="none">
  <circle cx="50" cy="50" r="47.5" fill="#3E9CDC" stroke="#286690" stroke-width="5"/>
  <path fill="#fff" d="M66.8 62.1c0 .3-.3.6-.6.6H36.6a.7.7 0 0 1-.7-.6V46.7l1.4 1.3 8.6 6.8c1.5 1.3 3.4 2.8 5.4 2.8 2.2 0 4-1.5 5.6-2.8a275.6 275.6 0 0 1 9.9-8.1V62Zm0-21.1c0 1.7-1.7 4-3 5l-8 6.3c-1 .9-3 2.7-4.4 2.7-1.5 0-3.4-1.8-4.5-2.7L39 46a7.2 7.2 0 0 1-3-5.8c0-.3.3-.6.7-.6h29.6c.7 0 .6.9.6 1.4Zm2.6-.8c0-1.7-1.5-3.2-3.2-3.2H36.6a3.2 3.2 0 0 0-3.2 3.3V62c0 1.8 1.4 3.2 3.2 3.2h29.6c1.7 0 3.2-1.4 3.2-3.2V40.2Z"/>
</g></symbol><symbol id="ft5" viewBox="0 0 100 100"><g fill="none">
  <circle cx="50" cy="50" r="47.5" fill="#3E9CDC" stroke="#286690" stroke-width="5"/>
  <path fill="#fff" d="M45.7 54.5v-1.9h2.6v-5.8L47.2 48l-1.6-1.6 3-2.8h2.3v9h2.5v2h-7.7ZM56 49.4c0-3.7-2.2-8.4-6.4-8.4s-6.4 4.7-6.4 8.4c0 3.6 2.2 8.4 6.4 8.4S56 53 56 49.4Zm10.3 5.1a5.2 5.2 0 0 0-5.1 5.2H38c0-2.9-2.3-5.2-5.1-5.2V44.2c2.8 0 5.1-2.3 5.1-5h23.2c0 2.7 2.3 5 5.1 5v10.3Zm2.6-16.7c0-.7-.6-1.3-1.3-1.3h-36c-.7 0-1.3.6-1.3 1.3V61c0 .7.6 1.3 1.3 1.3h36c.7 0 1.3-.6 1.3-1.3V37.8Z"/>
</g></symbol><symbol id="icon-chevron" viewBox="0 0 21 21"><g fill="none">
  <path fill="#000" d="m15 8.5-.2-.2-.4-.4-.2-.1H14l-3.5 3.6L7 7.9l-.2-.1h-.2l-.5.5v.4l4.2 4.2h.4l4.1-4.2.1-.2Z"/>
</g></symbol><symbol id="icon-close" viewBox="0 0 20 20"><g fill="none"><path d="M.293 18.291a1 1 0 101.414 1.414L10 11.413l8.292 8.292a1 1 0 101.414-1.414l-8.292-8.292 8.292-8.292A1 1 0 1018.291.293L9.999 8.585 1.707.293A1 1 0 10.293 1.707L8.585 10 .293 18.291z"/></g></symbol><symbol id="icon-file" viewBox="0 0 18 21"><g fill="none">
  <path fill="#272733" d="m16.8 4.6-3.5-3.5a3 3 0 0 0-1.8-.7h-10a1 1 0 0 0-1 1v17.9c0 .6.4 1 1 1h15c.6 0 1-.4 1-1V6.4a3 3 0 0 0-.7-1.8Zm-5-2.7.5.2 3.5 3.5.3.5h-4.2V1.9Zm4.3 17H2V1.8h8.5v4.6c0 .6.5 1.1 1.1 1.1h4.6V19ZM4.7 9.3v.7c0 .2.2.4.4.4h7.8c.2 0 .4-.2.4-.4v-.7c0-.2-.2-.4-.4-.4H5.1c-.2 0-.4.2-.4.4Zm8.2 2.5H5.1c-.2 0-.4.2-.4.4v.7c0 .2.2.3.4.3h7.8c.2 0 .4-.1.4-.3v-.7c0-.2-.2-.4-.4-.4Zm0 2.9H5.1c-.2 0-.4.1-.4.3v.7c0 .2.2.4.4.4h7.8c.2 0 .4-.2.4-.4V15c0-.2-.2-.3-.4-.3Z"/>
</g></symbol><symbol id="icon-letter" viewBox="0 0 21 20"><g fill="none">
  <path fill="#3E9CDC" d="M16.8 14.8c0 .2-.2.3-.3.3H4.2a.3.3 0 0 1-.3-.3V8.4l.6.6L8 11.8c.7.5 1.4 1.2 2.3 1.2.9 0 1.7-.7 2.3-1.2a114.8 114.8 0 0 1 4.2-3.4v6.4Zm0-8.7c0 .7-.7 1.6-1.3 2l-3.3 2.7c-.5.3-1.3 1.1-1.9 1.1-.6 0-1.4-.8-1.8-1.1L5 8a3 3 0 0 1-1-2.3c0-.1.1-.2.3-.2h12.3c.3 0 .3.3.3.6Zm1-.4c0-.7-.6-1.3-1.3-1.3H4.2c-.8 0-1.4.6-1.4 1.3v9.1c0 .8.6 1.4 1.4 1.4h12.3c.7 0 1.3-.6 1.3-1.4v-9Z"/>
</g></symbol><symbol id="icon-qiwi" viewBox="0 0 21 20"><g fill="none">
  
  <g clip-path="url(#clip0_4_174)">
    <g clip-path="url(#clip1_4_174)">
      <path fill="#3E9CDC" d="M17 13.5c0 .3-.2.5-.3.5l-.5-.5c-.2-.3-.3-.6-.2-.8l.2-.1h.2c.3.1.5.6.5.9Zm-2 .8c.4.3.6.7.3 1a.7.7 0 0 1-.5.3 1 1 0 0 1-.6-.3c-.4-.3-.5-.8-.3-1a.5.5 0 0 1 .5-.3l.6.3Zm-.7 3.2c1.8 0 3.7.6 5.8 2.4.2.2.5 0 .3-.2a9 9 0 0 0-5.9-3.5 6.4 6.4 0 0 1-4.4-3.1c-.1-.3-.2-.3-.2 0v1.7h-.2c-1.2 0-2.4-.4-3.4-1A6 6 0 0 1 4.1 11a5.7 5.7 0 0 1 1.3-6.4A6.1 6.1 0 0 1 12 3.5a6 6 0 0 1 2.8 2.1 5.7 5.7 0 0 1 1 4h-2c-.2 0-.2 0 0 0 2 .4 3.4 1.6 3.7 3.8a8.7 8.7 0 0 0-1.2-10.7A9.5 9.5 0 0 0 5.2 1.2a9 9 0 0 0-4 4.2A8.6 8.6 0 0 0 4.1 16a9.4 9.4 0 0 0 5.6 1.9c1.3 0 2.7-.3 4.6-.3Z"/>
    </g>
  </g>
  
</g></symbol><symbol id="icon-vk" viewBox="0 0 21 20"><g fill="none">
  <path fill="#3E9CDC" d="M15.2 12.3c0 .6-.1 1.2-.4 1.7a3 3 0 0 1-1 1.2c-.5.4-1 .7-1.6.8-.6.2-1.3.3-2.2.3H4.7v-13h6.8c.5 0 1 .2 1.4.5.5.2.8.6 1 1 .3.4.4.9.4 1.4a3 3 0 0 1-.5 1.8c-.3.5-.7.8-1.3 1v.1c.8.2 1.5.5 2 1 .4.6.7 1.3.7 2.2ZM11 6.9c0-.2 0-.4-.2-.6a1 1 0 0 0-.5-.5 36 36 0 0 0-2-.2H8v2.8h1.6l.7-.2.5-.5.2-.8Zm.8 5.3c0-.4 0-.7-.2-1l-.8-.4-.8-.2H8V14h.2a59 59 0 0 0 2.7-.3c.3 0 .6-.3.7-.5l.2-.9Z"/>
</g></symbol><symbol id="icon-webmoney" viewBox="0 0 21 20"><g fill="none">
  <g clip-path="url(#clip0_4_184)">
    <path fill="#3E9CDC" d="M9.3 0A9.1 9.1 0 0 1 14 1.2l-.9.7L11.8.6l-2.1 2-1.3-1.4-4 3.5L7 7.4l-1 .8L8.5 11l-1 .8 3.6 4 2-2 1.9 2-1.2.8A9 9 0 0 1 .3 8.8a9 9 0 0 1 9-8.8ZM7.7 8.3l2.1-1.9 2 2.2-2.2 1.9-2-2.2ZM9.2 12l2.2-1.9 1.9 2.1-2.2 2L9.2 12Zm-3-7.3 2.1-1.9 2 2.1L8 7 6 4.7Zm3.9-1 1.6-1.4 1.4 1.6-1.6 1.4-1.4-1.6Zm2.9 6.6 1.6-1.5 1.4 1.6-1.6 1.5-1.4-1.6Zm1.4 3.2L16 12l1.4 1.6-1.6 1.5-1.4-1.6ZM15 6l1-1 1 1.1-1 1-1-1Zm-1.4-3 1.1-1 1 1-1.1 1-1-1Zm2.8 6.3 1-1 1 1-1 1-1-1Zm-4.8-2.4 1.6-1.4L14.6 7 13 8.5l-1.4-1.6Z"/>
  </g>
  
</g></symbol><symbol id="icon-yandex-money" viewBox="0 0 21 20"><g fill="none">
  <path fill="#3E9CDC" fill-rule="evenodd" d="M3.8 10c0-1 0-1.7 2.1-3.2l7.2-5.6v7.2h4.1v10.4H5.1c-.7 0-1.3-.6-1.3-1.3V9.9Z" clip-rule="evenodd"/>
  <path fill="#000" fill-opacity=".2" fill-rule="evenodd" d="M13 8.4v4.2l-7.5 5.1 9.6-3V8.3h-2Z" clip-rule="evenodd"/>
  <path fill="#231F20" fill-rule="evenodd" d="M9.6 8.2c.4-.5 1-.7 1.4-.4.4.3.3 1-.1 1.5-.5.5-1.1.7-1.5.4-.3-.3-.3-1 .2-1.5Z" clip-rule="evenodd"/>
</g></symbol></svg>