<svg xmlns="http://www.w3.org/2000/svg" fill="none" viewBox="0 0 100 100">
  <circle cx="50" cy="50" r="47.5" fill="#3E9CDC" stroke="#286690" stroke-width="5"/>
  <path fill="#fff" d="M59.8 58c0 1.4-1.2 2.5-2.6 2.5a2.6 2.6 0 0 1-2.6-2.5c0-1.4 1.2-2.6 2.6-2.6 1.4 0 2.6 1.2 2.6 2.6ZM44.4 42.5c0 1.4-1.2 2.6-2.6 2.6a2.6 2.6 0 0 1-2.6-2.6c0-1.4 1.2-2.5 2.6-2.5 1.4 0 2.6 1.1 2.6 2.5ZM64.9 58a7.7 7.7 0 1 0-15.4 0 7.7 7.7 0 0 0 15.4 0ZM63 36c0-.7-.6-1.3-1.3-1.3h-3.2c-.4 0-.8.2-1 .5L36.3 63.6c-.2.3-.3.5-.3.8 0 .7.6 1.3 1.3 1.3h3.2c.4 0 .8-.2 1-.5l21.2-28.3c.2-.3.3-.5.3-.8Zm-13.5 6.4a7.7 7.7 0 1 0-15.4 0 7.7 7.7 0 0 0 15.4 0Z"/>
</svg>