<svg xmlns="http://www.w3.org/2000/svg" fill="none" viewBox="0 0 100 100">
  <circle cx="50" cy="50" r="47.5" fill="#3E9CDC" stroke="#286690" stroke-width="5"/>
  <path fill="#fff" d="M66.8 62.1c0 .3-.3.6-.6.6H36.6a.7.7 0 0 1-.7-.6V46.7l1.4 1.3 8.6 6.8c1.5 1.3 3.4 2.8 5.4 2.8 2.2 0 4-1.5 5.6-2.8a275.6 275.6 0 0 1 9.9-8.1V62Zm0-21.1c0 1.7-1.7 4-3 5l-8 6.3c-1 .9-3 2.7-4.4 2.7-1.5 0-3.4-1.8-4.5-2.7L39 46a7.2 7.2 0 0 1-3-5.8c0-.3.3-.6.7-.6h29.6c.7 0 .6.9.6 1.4Zm2.6-.8c0-1.7-1.5-3.2-3.2-3.2H36.6a3.2 3.2 0 0 0-3.2 3.3V62c0 1.8 1.4 3.2 3.2 3.2h29.6c1.7 0 3.2-1.4 3.2-3.2V40.2Z"/>
</svg>