<svg xmlns="http://www.w3.org/2000/svg" fill="none" viewBox="0 0 21 20"><g clip-path="url(#clip0_4_184)"><path fill="#3E9CDC" d="M9.3 0A9.1 9.1 0 0 1 14 1.2l-.9.7L11.8.6l-2.1 2-1.3-1.4-4 3.5L7 7.4l-1 .8L8.5 11l-1 .8 3.6 4 2-2 1.9 2-1.2.8A9 9 0 0 1 .3 8.8a9 9 0 0 1 9-8.8ZM7.7 8.3l2.1-1.9 2 2.2-2.2 1.9-2-2.2ZM9.2 12l2.2-1.9 1.9 2.1-2.2 2L9.2 12Zm-3-7.3 2.1-1.9 2 2.1L8 7 6 4.7Zm3.9-1 1.6-1.4 1.4 1.6-1.6 1.4-1.4-1.6Zm2.9 6.6 1.6-1.5 1.4 1.6-1.6 1.5-1.4-1.6Zm1.4 3.2L16 12l1.4 1.6-1.6 1.5-1.4-1.6ZM15 6l1-1 1 1.1-1 1-1-1Zm-1.4-3 1.1-1 1 1-1.1 1-1-1Zm2.8 6.3 1-1 1 1-1 1-1-1Zm-4.8-2.4 1.6-1.4L14.6 7 13 8.5l-1.4-1.6Z"/></g><defs><clipPath id="clip0_4_184"><path fill="#fff" d="M.5 0h20v20H.5z"/></clipPath></defs></svg>