<svg xmlns="http://www.w3.org/2000/svg" xmlns:xlink="http://www.w3.org/1999/xlink" fill="none" viewBox="0 0 21 20"><defs><path id="reuse-0" fill="#fff" d="M.5 0h20v20H.5z"/></defs><g clip-path="url(#clip0_4_174)"><g clip-path="url(#clip1_4_174)"><path fill="#3E9CDC" d="M17 13.5c0 .3-.2.5-.3.5l-.5-.5c-.2-.3-.3-.6-.2-.8l.2-.1h.2c.3.1.5.6.5.9Zm-2 .8c.4.3.6.7.3 1a.7.7 0 0 1-.5.3 1 1 0 0 1-.6-.3c-.4-.3-.5-.8-.3-1a.5.5 0 0 1 .5-.3l.6.3Zm-.7 3.2c1.8 0 3.7.6 5.8 2.4.2.2.5 0 .3-.2a9 9 0 0 0-5.9-3.5 6.4 6.4 0 0 1-4.4-3.1c-.1-.3-.2-.3-.2 0v1.7h-.2c-1.2 0-2.4-.4-3.4-1A6 6 0 0 1 4.1 11a5.7 5.7 0 0 1 1.3-6.4A6.1 6.1 0 0 1 12 3.5a6 6 0 0 1 2.8 2.1 5.7 5.7 0 0 1 1 4h-2c-.2 0-.2 0 0 0 2 .4 3.4 1.6 3.7 3.8a8.7 8.7 0 0 0-1.2-10.7A9.5 9.5 0 0 0 5.2 1.2a9 9 0 0 0-4 4.2A8.6 8.6 0 0 0 4.1 16a9.4 9.4 0 0 0 5.6 1.9c1.3 0 2.7-.3 4.6-.3Z"/></g></g><defs><clipPath id="clip0_4_174"><use xlink:href="#reuse-0"/></clipPath><clipPath id="clip1_4_174"><use xlink:href="#reuse-0"/></clipPath></defs></svg>