<svg xmlns="http://www.w3.org/2000/svg" fill="none" viewBox="0 0 18 21">
  <path fill="#272733" d="m16.8 4.6-3.5-3.5a3 3 0 0 0-1.8-.7h-10a1 1 0 0 0-1 1v17.9c0 .6.4 1 1 1h15c.6 0 1-.4 1-1V6.4a3 3 0 0 0-.7-1.8Zm-5-2.7.5.2 3.5 3.5.3.5h-4.2V1.9Zm4.3 17H2V1.8h8.5v4.6c0 .6.5 1.1 1.1 1.1h4.6V19ZM4.7 9.3v.7c0 .2.2.4.4.4h7.8c.2 0 .4-.2.4-.4v-.7c0-.2-.2-.4-.4-.4H5.1c-.2 0-.4.2-.4.4Zm8.2 2.5H5.1c-.2 0-.4.2-.4.4v.7c0 .2.2.3.4.3h7.8c.2 0 .4-.1.4-.3v-.7c0-.2-.2-.4-.4-.4Zm0 2.9H5.1c-.2 0-.4.1-.4.3v.7c0 .2.2.4.4.4h7.8c.2 0 .4-.2.4-.4V15c0-.2-.2-.3-.4-.3Z"/>
</svg>