<svg xmlns="http://www.w3.org/2000/svg" fill="none" viewBox="0 0 245 21"><path fill="#fff" d="M.7 20.5V.6h4.6v15.9h9.6v4H.7Zm23.8.2a10 10 0 0 1-9.9-10.1 10 10 0 0 1 6-9.3c1.2-.5 2.6-.8 4-.8a9.2 9.2 0 0 1 7.1 3.2 10.4 10.4 0 0 1 0 14c-1 .8-2 1.6-3.2 2.1-1.2.6-2.5.9-4 .9Zm-5.2-10.1c0 .8.2 1.5.4 2.2.2.7.5 1.4 1 2a4.8 4.8 0 0 0 3.9 1.8 4.7 4.7 0 0 0 3.9-2 7.5 7.5 0 0 0 1-6.4l-1-1.8c-.5-.5-1-1-1.7-1.3-.7-.3-1.4-.5-2.3-.5a5 5 0 0 0-2.2.5 5.1 5.1 0 0 0-2.7 3.3c-.2.7-.3 1.4-.3 2.2Zm17.8 9.9V.6h9c.9 0 1.7.2 2.5.6A6.8 6.8 0 0 1 52 5a6.3 6.3 0 0 1 .3 4.2 7 7 0 0 1-1.7 3 6 6 0 0 1-1.3 1l4.4 7.4h-5.2l-3.8-6.4h-3v6.4H37Zm4.6-10.4h4.2c.5 0 1-.3 1.4-.8.4-.5.6-1.2.6-2s-.3-1.4-.7-2c-.5-.4-1-.6-1.5-.6h-4V10Zm28.1 6.4v4h-14V.6h13.8v4h-9.2v4h7.9v3.6h-7.9v4.3h9.4Zm18.5 4V8.6L84 17.3h-2.5l-4.3-8.7v11.9h-4.6V.6h5L82.7 11 88 .6h5v19.9h-4.6Zm8.4 0V.6h4.6v19.9h-4.6Zm8.4 0V.6h8.5c1 0 1.8.2 2.6.6a7 7 0 0 1 2.1 10.8 6 6 0 0 1-4.6 2h-4v6.5H105Zm4.6-10.4h3.7c.6 0 1-.2 1.4-.7.4-.5.6-1.2.6-2 0-.5 0-1-.2-1.3 0-.3-.2-.6-.5-.8l-.7-.5a2 2 0 0 0-.7-.1h-3.6V10Zm24.8-3.7-.6-.4a11 11 0 0 0-4.7-1.5c-1.7 0-2.5.6-2.5 1.7 0 .3 0 .6.3.8.1.3.4.5.7.6.4.2.8.4 1.4.5a137.9 137.9 0 0 0 4.4 1.4l1.9 1.1c.5.5 1 1 1.2 1.7.3.6.5 1.4.5 2.3a6 6 0 0 1-2.3 4.8c-.7.4-1.5.8-2.4 1a12.4 12.4 0 0 1-5 .2 17.7 17.7 0 0 1-4.4-1.3l-1.9-1 2-4 .8.5a11.2 11.2 0 0 0 3.5 1.5 9 9 0 0 0 2.3.3c1.6 0 2.4-.5 2.4-1.5 0-.4 0-.7-.3-1l-1-.6-1.6-.5a336 336 0 0 1-4.3-1.5c-.6-.3-1.2-.7-1.6-1.1-.5-.5-.8-1-1-1.5a6 6 0 0 1-.3-2c0-1 .2-2 .6-2.8a6.2 6.2 0 0 1 3.9-3.2 9.4 9.4 0 0 1 4.9-.3 15.4 15.4 0 0 1 5 2l-2 3.8Zm13.8 10.2c.8 0 1.4-.2 2-.5a4 4 0 0 0 1.3-1.3c.3-.6.6-1.2.7-1.9.2-.7.2-1.4.2-2.1V.6h4.6v10.2c0 1.4-.2 2.7-.5 3.8a8.6 8.6 0 0 1-1.6 3.2c-.7.9-1.6 1.6-2.8 2.1a9 9 0 0 1-3.9.8c-1.6 0-3-.3-4-.8a7.7 7.7 0 0 1-4.3-5.4c-.4-1.2-.5-2.4-.5-3.7V.6h4.6v10.2c0 .7 0 1.5.2 2.2.1.7.4 1.3.7 1.8.4.6.8 1 1.3 1.3.6.3 1.2.5 2 .5Zm28 3.9V8.6l-4.3 8.7h-2.4l-4.3-8.7v11.9h-4.6V.6h5l5.1 10.4L176 .6h5v19.9h-4.6Zm8 0v-4.6h3.7v4.6h-3.6Z"/><path fill="#42A9ED" d="M196 9.1v11.4h-4.5V.6h3.6l9.2 11.7V.6h4.6v19.9h-3.7l-9.1-11.4Zm30.7 7.4v4h-14V.6h13.7v4h-9v4h7.7v3.6h-7.8v4.3h9.4Zm18-11.8h-6.1v15.8H234V4.7h-6v-4h16.6v4Z"/></svg>